<svg xmlns="http://www.w3.org/2000/svg" width="32" height="32" fill="none" viewBox="0 0 32 32"><g clip-path="url(#clip0_6817_470)"><path fill="#1b2129" d="M4 22.667C4 23.403 4.597 24 5.333 24h9.333a1.333 1.333 0 0 0 0-2.667H5.334c-.736 0-1.333.597-1.333 1.334M4 16c0 .736.597 1.333 1.333 1.333h21.333a1.333 1.333 0 0 0 0-2.667H5.334C4.597 14.667 4 15.265 4 16m1.333-8A1.333 1.333 0 0 0 5.333 10.667H20A1.333 1.333 0 0 0 20 8Z"/></g><defs><clipPath id="clip0_6817_470"><path fill="#fff" d="M0 0h32v32H0Z"/></clipPath></defs></svg>